<svg width="327" height="242" viewBox="0 0 327 242" fill="none" xmlns="http://www.w3.org/2000/svg">
<path d="M326.5 100V205.5C326.5 215.833 322.833 224.5 315.5 231.5C308.5 238.5 300 242 290 242C280 242 271.333 238.5 264 231.5C257 224.5 253.5 215.833 253.5 205.5V100C253.5 92.6667 250.833 86.5 245.5 81.5C240.167 76.1667 233.833 73.5 226.5 73.5C219.167 73.5 212.833 76.1667 207.5 81.5C202.167 86.5 199.5 92.6667 199.5 100V205.5C199.5 215.833 196 224.5 189 231.5C182 238.5 173.333 242 163 242C153 242 144.333 238.5 137 231.5C130 224.5 126.5 215.833 126.5 205.5V100C126.5 92.6667 123.833 86.5 118.5 81.5C113.5 76.1667 107.333 73.5 100 73.5C92.3333 73.5 85.8333 76.1667 80.5 81.5C75.5 86.5 73 92.6667 73 100V205.5C73 215.833 69.3333 224.5 62 231.5C55 238.5 46.5 242 36.5 242C26.5 242 17.8333 238.5 10.5 231.5C3.5 224.5 0 215.833 0 205.5V100C0 72.6667 9.66667 49.3333 29 30C48.6667 10.3333 72.3333 0.5 100 0.5C122 0.5 143 8 163 23C183.333 8 204.5 0.5 226.5 0.5C254.167 0.5 277.667 10.3333 297 30C316.667 49.3333 326.5 72.6667 326.5 100Z" fill="white"/>
</svg>
